<?xml version="1.0" encoding="utf-8"?>
<!-- Generator: Adobe Illustrator 16.0.0, SVG Export Plug-In . SVG Version: 6.00 Build 0)  -->
<!DOCTYPE svg PUBLIC "-//W3C//DTD SVG 1.1//EN" "http://www.w3.org/Graphics/SVG/1.1/DTD/svg11.dtd">
<svg version="1.1" xmlns="http://www.w3.org/2000/svg" xmlns:xlink="http://www.w3.org/1999/xlink" x="0px" y="0px"
	 width="169.055px" height="188.428px" viewBox="0 0 169.055 188.428" enable-background="new 0 0 169.055 188.428"
	 xml:space="preserve">
<g id="BACKGROUND" display="none">
	<radialGradient id="SVGID_1_" cx="-10.3135" cy="-105.0918" r="613.7764" gradientUnits="userSpaceOnUse">
		<stop  offset="0" style="stop-color:#FFFFFF"/>
		<stop  offset="0.5071" style="stop-color:#FDFDFD"/>
		<stop  offset="0.6898" style="stop-color:#F6F6F6"/>
		<stop  offset="0.82" style="stop-color:#EBEBEB"/>
		<stop  offset="0.9245" style="stop-color:#DADADA"/>
		<stop  offset="1" style="stop-color:#C9C8C8"/>
	</radialGradient>
	<rect x="-407.313" y="-512.092" display="inline" fill="url(#SVGID_1_)" width="800" height="800"/>
</g>
<g id="OBJECTS">
	<g>
		<g display="none">
			<g display="inline">
				<path fill="#F27FB2" d="M194.638,39.086l62.615-36.15c6.78-3.914,15.133-3.914,21.912,0l62.615,36.15
					c6.78,3.915,10.956,11.148,10.956,18.977v72.303c0,7.828-4.176,15.062-10.956,18.976l-62.615,36.151
					c-6.779,3.914-15.132,3.914-21.912,0l-62.615-36.151c-6.779-3.914-10.956-11.147-10.956-18.976V58.063
					C183.682,50.234,187.858,43.001,194.638,39.086z"/>
				<path opacity="0.45" fill="#FFFFFF" d="M341.78,39.086l-62.615-36.15C275.775,0.979,271.992,0,268.209,0v188.428
					c3.783,0,7.566-0.979,10.956-2.936l62.615-36.151c6.78-3.914,10.956-11.147,10.956-18.976V58.063
					C352.736,50.234,348.561,43.001,341.78,39.086z"/>
			</g>
			<path display="inline" fill="#FFFFFF" d="M289.501,106.28c-9.796,12.736-18.079,19.104-24.859,19.104
				c-4.198,0-7.755-3.878-10.655-11.635c-1.941-7.108-3.878-14.221-5.816-21.328c-2.158-7.752-4.467-11.636-6.94-11.636
				c-0.539,0-2.424,1.135-5.652,3.396l-3.389-4.369c3.553-3.127,7.063-6.25,10.511-9.381c4.74-4.097,8.304-6.256,10.676-6.472
				c5.603-0.539,9.058,3.296,10.356,11.5c1.395,8.857,2.364,14.363,2.908,16.519c1.618,7.346,3.396,11.013,5.338,11.013
				c1.506,0,3.772-2.381,6.792-7.146c3.018-4.763,4.635-8.388,4.851-10.879c0.435-4.111-1.184-6.177-4.851-6.177
				c-1.722,0-3.5,0.398-5.333,1.183c3.542-11.6,10.308-17.235,20.292-16.917c7.399,0.221,10.896,5.023,10.467,14.412
				C303.876,84.482,298.979,94.088,289.501,106.28z"/>
		</g>
		<g display="none">
			<g display="inline">
				<path fill="#91D5E0" d="M194.638-277.851l62.615-36.151c6.78-3.914,15.133-3.914,21.912,0l62.615,36.151
					c6.78,3.915,10.956,11.148,10.956,18.977v72.302c0,7.828-4.176,15.062-10.956,18.976l-62.615,36.151
					c-6.779,3.915-15.132,3.915-21.912,0l-62.615-36.151c-6.779-3.914-10.956-11.148-10.956-18.976v-72.302
					C183.682-266.703,187.858-273.936,194.638-277.851z"/>
				<path opacity="0.45" fill="#FFFFFF" d="M341.78-277.85l-62.615-36.151c-3.39-1.957-7.173-2.936-10.956-2.936v188.428
					c3.783,0,7.566-0.979,10.956-2.936l62.615-36.151c6.78-3.914,10.956-11.148,10.956-18.976v-72.302
					C352.736-266.703,348.561-273.936,341.78-277.85z"/>
			</g>
			<path display="inline" fill="#FFFFFF" d="M269.593-264.171c-29.838,0.537-48.863,30.362-38.277,57.584
				c-1.994,5.881-3.989,11.756-5.984,17.635c-0.992,2.926,2,5.032,4.578,4.579c5.854-1.026,11.71-2.049,17.563-3.073
				c23.748,14.542,54.97,2.214,62.383-24.74C317.066-238.4,295.933-263.697,269.593-264.171z M291.349-196.276
				c-5.216,4.554-12.164,7.098-18.993,7.715c-4.465,0.399-8.863-0.263-13.143-1.509c-2.261-0.66-4.356-1.695-6.415-2.809
				c-1.461-0.792-2.797-2.186-4.561-2.186c-3.154,0-6.6,1.115-9.683,1.654c-1.367,0.241-2.735,0.478-4.103,0.717
				c0.918-2.707,1.838-5.413,2.757-8.121c0.547-1.616,1.096-3.229,1.644-4.845c0.696-2.047-1.13-4.653-1.756-6.483
				c-0.965-2.828-1.399-5.786-1.598-8.752c-1.301-19.497,15.099-35.492,34.094-35.833c14.117,0.254,26.706,8.683,31.896,21.914
				C306.881-221.071,302.243-205.783,291.349-196.276z M276.554-215.35l9.696,8.917c-0.875,0.726-1.904,1.207-3.056,1.396
				c-1.032,0.31-9.806,2.558-21.074-7.806c-8.613-7.919-10.482-15.631-10.831-19.51c-0.071-0.904-0.058-1.53-0.048-1.816v-0.026
				c0.01-0.109,0.01-0.157,0.01-0.157c0.078-1.188,0.469-2.29,1.135-3.237l9.691,8.914c-0.582,0.485-1.23,0.863-1.945,1.108
				c0.799,1.851,2.784,5.876,6.284,9.108c3.492,3.2,7.395,4.646,9.203,5.19C275.8-214.018,276.12-214.716,276.554-215.35z
				 M264.462-229.227l-11.733-10.766c0.063-0.082,0.136-0.174,0.202-0.239l0.528-0.578c1.68-1.834,4.554-1.956,6.401-0.271
				l5.077,4.657c0.829,0.775,1.353,1.815,1.454,2.947c0.103,1.264-0.328,2.53-1.182,3.472l-0.512,0.548
				C264.626-229.374,264.545-229.301,264.462-229.227z M289.181-214.179c0.821,0.76,1.344,1.813,1.446,2.937
				c0.111,1.269-0.313,2.53-1.171,3.468l-0.524,0.559c-0.07,0.084-0.151,0.154-0.234,0.227l-11.726-10.768
				c0.064-0.083,0.125-0.171,0.209-0.251l0.509-0.56c0.815-0.893,1.926-1.413,3.139-1.463c1.216-0.058,2.378,0.372,3.261,1.185
				L289.181-214.179z"/>
		</g>
		<g id="face">
			<g>
				<path fill="#313131" d="M10.956,39.086l62.615-36.15c6.779-3.914,15.133-3.914,21.912,0l62.615,36.15
					c6.78,3.915,10.956,11.148,10.956,18.977v72.303c0,7.828-4.176,15.062-10.956,18.976l-62.615,36.151
					c-6.779,3.914-15.133,3.914-21.912,0l-62.615-36.151C4.177,145.427,0,138.193,0,130.365V58.063
					C0,50.234,4.177,43.001,10.956,39.086z"/>
				<path opacity="0.45" fill="#FFFFFF" d="M158.099,39.086L95.483,2.936C92.094,0.979,88.311,0,84.527,0v188.428
					c3.783,0,7.566-0.979,10.956-2.936l62.615-36.151c6.779-3.914,10.956-11.147,10.956-18.976V58.063
					C169.055,50.234,164.878,43.001,158.099,39.086z"/>
			</g>
			<path fill="#FFFFFF" d="M100.872,94.212H90.376v38.01H74.652v-38.01h-7.859V81.11h7.859v-7.863
				c0-10.685,4.437-17.041,17.039-17.041h10.494v13.102H95.63c-4.907,0-5.235,1.83-5.235,5.246l-0.019,6.557h11.887L100.872,94.212z
				"/>
		</g>
		<g display="none">
			<g display="inline">
				<path fill="#F27FB2" d="M-356.408-277.851l62.615-36.151c6.78-3.914,15.133-3.914,21.912,0l62.616,36.151
					c6.779,3.915,10.956,11.148,10.956,18.977v72.302c0,7.828-4.176,15.062-10.956,18.976l-62.616,36.151
					c-6.779,3.915-15.132,3.915-21.912,0l-62.615-36.151c-6.78-3.914-10.956-11.148-10.956-18.976v-72.302
					C-367.364-266.703-363.188-273.936-356.408-277.851z"/>
				<path opacity="0.45" fill="#FFFFFF" d="M-209.265-277.85l-62.616-36.151c-3.39-1.957-7.173-2.936-10.956-2.936v188.428
					c3.783,0,7.566-0.979,10.956-2.936l62.616-36.151c6.779-3.914,10.956-11.148,10.956-18.976v-72.302
					C-198.309-266.703-202.485-273.936-209.265-277.85z"/>
			</g>
			<path display="inline" fill="#FFFFFF" d="M-254.091-254.342h-57.493c-5.616,0-10.21,6-10.21,13.341v36.555
				c0,7.341,4.594,13.342,10.21,13.342h57.493c5.616,0,10.212-6.001,10.212-13.342v-36.555
				C-243.879-248.342-248.475-254.342-254.091-254.342z M-273.566-219.846l-15.947,10.391c-2.429,1.585-4.417,0.506-4.417-2.393
				v-5.604c0-2.9,0-7.641,0-10.544v-5.6c0-2.9,1.988-3.979,4.417-2.395l15.947,10.389
				C-271.136-224.019-271.136-221.429-273.566-219.846z"/>
		</g>
		<g display="none">
			<g display="inline">
				<path fill="#91D5E0" d="M-356.408,39.086l62.615-36.15c6.78-3.914,15.133-3.914,21.912,0l62.616,36.15
					c6.779,3.915,10.956,11.148,10.956,18.977v72.303c0,7.828-4.176,15.062-10.956,18.976l-62.616,36.151
					c-6.779,3.914-15.132,3.914-21.912,0l-62.615-36.151c-6.78-3.914-10.956-11.147-10.956-18.976V58.063
					C-367.364,50.234-363.188,43.001-356.408,39.086z"/>
				<path opacity="0.45" fill="#FFFFFF" d="M-209.265,39.086l-62.616-36.15C-275.27,0.979-279.053,0-282.836,0v188.428
					c3.783,0,7.566-0.979,10.956-2.936l62.616-36.151c6.779-3.914,10.956-11.147,10.956-18.976V58.063
					C-198.309,50.234-202.485,43.001-209.265,39.086z"/>
			</g>
			<path display="inline" fill="#FFFFFF" d="M-259.218,96.501c0.086-0.651,0.145-1.311,0.171-1.978
				c0.069-0.026,0.139-0.051,0.207-0.082l9.146-4.176c1.813-0.828,2.612-2.971,1.786-4.784c-0.829-1.814-2.971-2.613-4.785-1.785
				l-6.33,2.891V75.498c0-12.149-9.941-22.09-22.09-22.09h-3.398c-12.15,0-22.09,9.94-22.09,22.09v11.089l-6.33-2.891
				c-1.814-0.828-3.956-0.029-4.785,1.785c-0.829,1.813-0.029,3.956,1.786,4.784l9.146,4.176c0.068,0.031,0.138,0.056,0.207,0.082
				c0.025,0.628,0.08,1.249,0.157,1.862h0c0,0-4.795,17.864-20.618,19.329c0,0,1.133,6.984,11.186,8.543
				c10.055,1.557,12.886,1.416,17.417,4.673c4.522,3.25,7.588,6.075,15.577,6.087v0.001c0.007,0,0.015-0.001,0.023-0.001
				s0.016,0.001,0.023,0.001v-0.001c7.988-0.012,11.055-2.837,15.577-6.087c4.531-3.257,7.363-3.116,17.417-4.673
				c10.054-1.559,11.187-8.543,11.187-8.543C-253.752,114.315-258.799,97.951-259.218,96.501z"/>
		</g>
		<g display="none">
			<g display="inline">
				<path fill="#148696" d="M-264.567-119.382l62.616-36.151c6.779-3.914,15.132-3.914,21.912,0l62.616,36.151
					c6.779,3.914,10.956,11.147,10.956,18.977v72.302c0,7.828-4.177,15.063-10.956,18.977l-62.616,36.15
					c-6.779,3.914-15.132,3.914-21.912,0l-62.616-36.15c-6.779-3.914-10.956-11.148-10.956-18.977v-72.302
					C-275.523-108.234-271.346-115.468-264.567-119.382z"/>
				<path opacity="0.45" fill="#FFFFFF" d="M-117.424-119.382l-62.616-36.151c-3.39-1.957-7.173-2.936-10.956-2.936V29.959
					c3.783,0,7.566-0.979,10.956-2.936l62.616-36.15c6.779-3.914,10.956-11.148,10.956-18.977v-72.302
					C-106.468-108.234-110.645-115.468-117.424-119.382z"/>
			</g>
			<path display="inline" fill="#FFFFFF" d="M-152.858-55.54c0.582-2.674,0.893-5.441,0.893-8.283
				c0-21.317-17.288-38.599-38.6-38.599c-2.25,0-4.459,0.19-6.604,0.57c-3.452-2.181-7.528-3.445-11.907-3.445
				c-12.369,0-22.389,10.025-22.389,22.388c0,4.136,1.128,7.995,3.077,11.32c-0.513,2.507-0.782,5.108-0.782,7.766
				c0,21.313,17.284,38.6,38.604,38.6c2.412,0,4.772-0.226,7.067-0.646c3.148,1.696,6.755,2.657,10.578,2.657
				c12.364,0,22.393-10.02,22.393-22.388C-150.526-49.173-151.372-52.549-152.858-55.54z M-170.772-45.37
				c-1.785,2.513-4.421,4.517-7.839,5.945c-3.387,1.4-7.445,2.122-12.063,2.122c-5.545,0-10.193-0.98-13.821-2.906
				c-2.595-1.397-4.729-3.298-6.354-5.639c-1.636-2.357-2.47-4.71-2.47-6.971c0-1.414,0.54-2.646,1.607-3.646
				c1.061-0.998,2.412-1.503,4.029-1.503c1.328,0,2.472,0.397,3.4,1.189c0.893,0.749,1.651,1.865,2.267,3.302
				c0.684,1.565,1.426,2.889,2.213,3.926c0.761,1.01,1.848,1.85,3.24,2.512c1.398,0.658,3.289,0.995,5.605,0.995
				c3.193,0,5.811-0.679,7.775-2.023c1.928-1.318,2.857-2.882,2.857-4.814c0-1.526-0.487-2.722-1.49-3.665
				c-1.051-0.977-2.436-1.742-4.122-2.272c-1.752-0.547-4.13-1.135-7.078-1.755c-4.006-0.863-7.413-1.876-10.116-3.025
				c-2.768-1.18-4.999-2.813-6.626-4.845c-1.665-2.086-2.502-4.683-2.502-7.742c0-2.916,0.881-5.544,2.622-7.811
				c1.727-2.248,4.245-3.998,7.494-5.202c3.202-1.183,7.015-1.793,11.323-1.793c3.448,0,6.479,0.403,9.009,1.185
				c2.542,0.807,4.691,1.863,6.372,3.188c1.697,1.323,2.963,2.737,3.756,4.222c0.794,1.483,1.208,2.967,1.208,4.399
				c0,1.381-0.534,2.637-1.586,3.723c-1.056,1.104-2.389,1.663-3.963,1.663c-1.43,0-2.548-0.355-3.325-1.046
				c-0.722-0.628-1.471-1.635-2.3-3.058c-0.967-1.832-2.131-3.271-3.464-4.284c-1.301-0.993-3.469-1.502-6.448-1.502
				c-2.768,0-5.017,0.559-6.688,1.657c-1.607,1.053-2.396,2.272-2.396,3.699c0,0.874,0.253,1.616,0.772,2.245
				c0.55,0.677,1.325,1.264,2.3,1.746c1.018,0.518,2.061,0.928,3.11,1.213c1.074,0.295,2.873,0.732,5.341,1.309
				c3.122,0.666,5.993,1.421,8.535,2.236c2.568,0.822,4.793,1.836,6.599,3.01c1.854,1.201,3.314,2.755,4.356,4.595
				c1.04,1.852,1.567,4.148,1.567,6.8C-168.069-50.812-168.975-47.917-170.772-45.37z"/>
		</g>
		<g id="insta" display="none">
			<g display="inline">
				<path fill="#F2C1B4" d="M-172.638,39.603l63.12-36.629c6.834-3.966,15.254-3.966,22.088,0l63.12,36.629
					c6.834,3.966,11.044,11.295,11.044,19.227v73.257c0,7.932-4.21,15.261-11.044,19.227l-63.12,36.629
					c-6.834,3.966-15.254,3.966-22.088,0l-63.12-36.629c-6.834-3.966-11.044-11.295-11.044-19.227V58.829
					C-183.682,50.897-179.472,43.568-172.638,39.603z"/>
				<path opacity="0.45" fill="#FFFFFF" d="M-24.31,39.603L-87.43,2.974C-90.847,0.991-94.66,0-98.474,0v190.915
					c3.814,0,7.627-0.991,11.044-2.974l63.12-36.629c6.834-3.966,11.044-11.295,11.044-19.227V58.829
					C-13.266,50.897-17.476,43.568-24.31,39.603z"/>
			</g>
			<path display="inline" fill="#FFFFFF" d="M-77.797,53.515h-41.353c-11.609,0-21.053,9.492-21.053,21.161v41.563
				c0,11.671,9.444,21.161,21.053,21.161h41.353c11.61,0,21.053-9.49,21.053-21.161V74.676
				C-56.744,63.007-66.187,53.515-77.797,53.515z M-98.475,117.063c-11.851,0-21.494-9.692-21.494-21.605
				c0-11.912,9.643-21.604,21.494-21.604c11.853,0,21.496,9.692,21.496,21.604C-76.979,107.37-86.622,117.063-98.475,117.063z
				 M-77.145,77.3c-2.784,0-5.047-2.263-5.047-5.045s2.263-5.045,5.047-5.045c2.782,0,5.045,2.263,5.045,5.045
				S-74.363,77.3-77.145,77.3z M-86.063,95.457c0,6.879-5.567,12.478-12.411,12.478c-6.841,0-12.413-5.599-12.413-12.478
				c0-6.877,5.571-12.474,12.413-12.474C-91.63,82.983-86.063,88.58-86.063,95.457z"/>
		</g>
		<g id="in" display="none">
			<g display="inline">
				<path fill="#5D5D5D" d="M102.797-119.382l62.615-36.151c6.78-3.914,15.133-3.914,21.912,0l62.615,36.151
					c6.78,3.914,10.956,11.147,10.956,18.977v72.302c0,7.828-4.176,15.063-10.956,18.977l-62.615,36.15
					c-6.779,3.914-15.132,3.914-21.912,0l-62.615-36.15c-6.779-3.914-10.956-11.148-10.956-18.977v-72.302
					C91.841-108.234,96.018-115.468,102.797-119.382z"/>
				<path opacity="0.45" fill="#FFFFFF" d="M249.939-119.382l-62.615-36.151c-3.39-1.957-7.173-2.936-10.956-2.936V29.959
					c3.783,0,7.566-0.979,10.956-2.936l62.615-36.15c6.78-3.914,10.956-11.148,10.956-18.977v-72.302
					C260.896-108.234,256.72-115.468,249.939-119.382z"/>
			</g>
			<path display="inline" fill="#FFFFFF" d="M158.095-34.272h-12.735V-75.01h12.735V-34.272z M159.172-87.174
				c-0.092-4.021-2.98-7.063-7.675-7.063c-4.701,0-7.778,3.05-7.778,7.071c0,3.947,2.987,7.063,7.598,7.063h0.088
				C156.191-80.104,159.172-83.229,159.172-87.174z M209.018-56.923c0-12.614-7.111-18.478-16.149-18.478
				c-7.294,0-11.859,3.989-12.708,6.786v-6.396h-14.297c0.183,3.395,0,40.737,0,40.737h14.297v-22.044
				c0-1.224-0.059-2.447,0.312-3.323c0.987-2.455,3.099-4.995,6.892-4.995c4.97,0,7.229,3.766,7.229,9.285v21.077h14.426V-56.923z"
				/>
		</g>
		<g display="none">
			<g display="inline">
				<path fill="#F27FB2" d="M-80.885-119.382l62.615-36.151c6.78-3.914,15.133-3.914,21.912,0l62.615,36.151
					c6.779,3.914,10.956,11.147,10.956,18.977v72.302c0,7.828-4.177,15.063-10.956,18.977L3.643,27.023
					c-6.779,3.914-15.132,3.914-21.912,0l-62.615-36.15c-6.78-3.914-10.956-11.148-10.956-18.977v-72.302
					C-91.841-108.234-87.665-115.468-80.885-119.382z"/>
				<path opacity="0.45" fill="#FFFFFF" d="M66.258-119.382L3.643-155.533c-3.39-1.957-7.173-2.936-10.956-2.936V29.959
					c3.783,0,7.566-0.979,10.956-2.936l62.615-36.15c6.779-3.914,10.956-11.148,10.956-18.977v-72.302
					C77.214-108.234,73.037-115.468,66.258-119.382z"/>
			</g>
			<path display="inline" fill="#FFFFFF" d="M-56.047-64.163c0-18.684,15.43-33.556,34.301-33.556c7.901,0,15.43,2.694,21.191,7.251
				c2.419,1.765,2.79,5.204,1.024,7.528c-1.765,2.232-5.205,2.694-7.531,0.838c-3.995-3.068-9.108-5.022-14.685-5.022
				c-6.694,0-12.55,2.512-16.733,6.786c-4.367,4.184-6.972,9.853-6.972,16.175c0,6.137,2.605,11.806,6.972,15.989
				c4.183,4.276,10.039,6.786,16.733,6.786c4.647,0,9.017-1.396,12.733-3.532v-12.735h-13.292c-2.881,0-5.298-2.417-5.298-5.301
				c0-2.973,2.417-5.204,5.298-5.204h18.313c0.091,0,0.091,0,0.091,0c0.093,0,0.093,0,0.093,0c2.975,0,5.394,2.231,5.394,5.204
				v20.546c0,0.651-0.187,1.022-0.281,1.581c-0.092,0.186-0.092,0.275-0.185,0.461v0.095c-0.277,0.838-0.837,1.581-1.767,2.23
				c-5.855,4.556-13.198,7.253-21.099,7.253C-40.617-30.79-56.047-45.571-56.047-64.163z M19.507-60.383H9.5
				c-2.114,0-3.876-1.687-3.876-3.873c0-2.108,1.762-3.873,3.876-3.873h10.007v-9.798c0-2.253,1.761-4.018,4.015-4.018
				c2.184,0,4.018,1.765,4.018,4.018v9.798h10.004c2.114,0,3.877,1.765,3.877,3.873c0,2.187-1.763,3.873-3.877,3.873H27.539v9.798
				c0,2.256-1.834,4.018-4.018,4.018c-2.254,0-4.015-1.762-4.015-4.018V-60.383z"/>
		</g>
		<g display="none">
			<g display="inline">
				<path fill="#F2C1B4" d="M10.956-277.851l62.615-36.151c6.779-3.914,15.133-3.914,21.912,0l62.615,36.151
					c6.78,3.915,10.956,11.148,10.956,18.977v72.302c0,7.828-4.176,15.062-10.956,18.976l-62.615,36.151
					c-6.779,3.915-15.133,3.915-21.912,0l-62.615-36.151C4.177-171.51,0-178.744,0-186.572v-72.302
					C0-266.703,4.177-273.936,10.956-277.851z"/>
				<path opacity="0.45" fill="#FFFFFF" d="M158.099-277.85l-62.615-36.151c-3.39-1.957-7.173-2.936-10.956-2.936v188.428
					c3.783,0,7.566-0.979,10.956-2.936l62.615-36.151c6.779-3.914,10.956-11.148,10.956-18.976v-72.302
					C169.055-266.703,164.878-273.936,158.099-277.85z"/>
			</g>
			<path display="inline" fill="#FFFFFF" d="M116.304-239.021c0.032,0.705,0.049,1.411,0.049,2.122
				c0,21.665-16.493,46.648-46.65,46.648c-9.258,0-17.878-2.713-25.133-7.366c1.282,0.153,2.59,0.229,3.911,0.229
				c7.68,0,14.751-2.622,20.365-7.021c-7.178-0.132-13.232-4.873-15.319-11.385c1.002,0.19,2.029,0.296,3.088,0.296
				c1.494,0,2.941-0.202,4.317-0.577c-7.502-1.509-13.151-8.134-13.151-16.077c0-0.069,0-0.137,0-0.208
				c2.21,1.229,4.737,1.965,7.426,2.053c-4.396-2.94-7.292-7.96-7.292-13.646c0-3.007,0.81-5.822,2.221-8.242
				c8.085,9.917,20.167,16.444,33.792,17.129c-0.28-1.203-0.429-2.452-0.429-3.736c0-9.054,7.345-16.396,16.402-16.396
				c4.71,0,8.973,1.991,11.965,5.178c3.737-0.736,7.244-2.1,10.412-3.98c-1.226,3.83-3.825,7.042-7.209,9.072
				c3.316-0.396,6.478-1.28,9.417-2.583C122.288-244.219,119.506-241.333,116.304-239.021z"/>
		</g>
		<g display="none">
			<g display="inline">
				<path fill="#5D5D5D" d="M-172.726-277.851l62.616-36.151c6.779-3.914,15.132-3.914,21.912,0l62.615,36.151
					c6.78,3.915,10.956,11.148,10.956,18.977v72.302c0,7.828-4.176,15.062-10.956,18.976l-62.615,36.151
					c-6.78,3.915-15.133,3.915-21.912,0l-62.616-36.151c-6.779-3.914-10.956-11.148-10.956-18.976v-72.302
					C-183.682-266.703-179.505-273.936-172.726-277.851z"/>
				<path opacity="0.45" fill="#FFFFFF" d="M-25.583-277.85l-62.615-36.151c-3.39-1.957-7.173-2.936-10.956-2.936v188.428
					c3.783,0,7.566-0.979,10.956-2.936l62.615-36.151c6.779-3.914,10.956-11.148,10.956-18.976v-72.302
					C-14.627-266.703-18.804-273.936-25.583-277.85z"/>
			</g>
			<path display="inline" fill="#FFFFFF" d="M-92.668-202.94c-5.214,0-10.125-2.82-11.8-6.023c0,0-2.81,11.134-3.399,13.284
				c-2.093,7.594-8.256,15.193-8.728,15.817c-0.333,0.432-1.072,0.297-1.148-0.274c-0.131-0.97-1.701-10.552,0.147-18.368
				c0.925-3.926,6.216-26.339,6.216-26.339s-1.544-3.086-1.544-7.647c0-7.164,4.155-12.509,9.323-12.509
				c4.394,0,6.515,3.3,6.515,7.256c0,4.42-2.812,11.025-4.261,17.15c-1.217,5.128,2.569,9.309,7.622,9.309
				c9.16,0,15.326-11.762,15.326-25.697c0-10.592-7.127-18.521-20.111-18.521c-14.659,0-23.795,10.933-23.795,23.147
				c0,4.211,1.246,7.184,3.191,9.477c0.893,1.059,1.019,1.482,0.694,2.695c-0.232,0.891-0.762,3.03-0.983,3.879
				c-0.321,1.224-1.316,1.662-2.421,1.209c-6.754-2.756-9.898-10.15-9.898-18.462c0-13.73,11.58-30.194,34.544-30.194
				c18.453,0,30.599,13.351,30.599,27.688C-66.583-217.105-77.124-202.94-92.668-202.94z"/>
		</g>
		<g display="none">
			<g display="inline">
				<text transform="matrix(1 0 0 1 -205.8311 -426.9717)" fill="#5D5D5D" font-family="'VarelaRound'" font-size="29.0809">FLAT SOCIAL MEDIA LOGOTYPES</text>
				<g>
					<text transform="matrix(1 0 0 1 -77.0962 -384.6006)" fill="#5D5D5D" font-family="'VarelaRound'" font-size="26">COLLECTION</text>
				</g>
			</g>
			<g display="inline">
				<g>
					<path fill="#5D5D5D" d="M340.784-393.101H257.19v-10.688h-82.238v-1h82.238v-9.688h-529.008v9.688h82.238v1h-82.238v10.688
						h-83.594v-11.688h82.594v-10.688H258.19v10.688h82.594V-393.101z M258.19-394.101h81.594v-9.688H258.19V-394.101z
						 M-354.411-394.101h81.594v-9.688h-81.594V-394.101z"/>
				</g>
			</g>
		</g>
	</g>
</g>
<g id="DESIGNED_BY_FREEPIK" display="none">
	<g id="XMLID_101_" display="inline">
		<g>
			<g id="XMLID_551_">
				<path id="XMLID_576_" fill="#5D5D5D" d="M-111.821,255.116v-0.258c-0.349,0.398-0.691,0.725-1.03,0.973
					c-0.339,0.252-0.706,0.441-1.103,0.57c-0.396,0.133-0.827,0.195-1.296,0.195c-0.621,0-1.195-0.131-1.725-0.393
					c-0.528-0.264-0.985-0.639-1.371-1.127c-0.388-0.486-0.68-1.059-0.879-1.719c-0.199-0.658-0.3-1.371-0.3-2.137
					c0-1.621,0.396-2.885,1.188-3.791c0.792-0.904,1.833-1.357,3.125-1.357c0.747,0,1.377,0.129,1.89,0.385
					c0.514,0.256,1.014,0.652,1.501,1.182v-3.826c0-0.533,0.105-0.934,0.318-1.207c0.212-0.271,0.514-0.408,0.907-0.408
					c0.393,0,0.694,0.125,0.906,0.375c0.213,0.252,0.318,0.619,0.318,1.107v11.436c0,0.494-0.113,0.863-0.342,1.111
					c-0.228,0.246-0.521,0.369-0.883,0.369c-0.354,0-0.647-0.127-0.879-0.383C-111.706,255.956-111.821,255.591-111.821,255.116z
					 M-116.922,251.308c0,0.703,0.109,1.301,0.328,1.795s0.518,0.865,0.897,1.115s0.795,0.377,1.244,0.377
					c0.456,0,0.872-0.119,1.249-0.357c0.377-0.236,0.678-0.602,0.902-1.092s0.337-1.105,0.337-1.838
					c0-0.691-0.112-1.285-0.337-1.783c-0.225-0.496-0.528-0.875-0.912-1.139c-0.383-0.262-0.803-0.393-1.258-0.393
					c-0.475,0-0.899,0.135-1.273,0.402c-0.373,0.27-0.663,0.654-0.868,1.158C-116.819,250.058-116.922,250.642-116.922,251.308z"/>
				<path id="XMLID_573_" fill="#5D5D5D" d="M-100.388,251.964h-5.071c0.007,0.588,0.125,1.107,0.356,1.557
					c0.23,0.449,0.538,0.789,0.921,1.016c0.384,0.229,0.807,0.342,1.269,0.342c0.31,0,0.593-0.035,0.85-0.107
					c0.257-0.074,0.505-0.188,0.746-0.344c0.241-0.154,0.462-0.32,0.665-0.498c0.202-0.178,0.464-0.42,0.788-0.723
					c0.133-0.113,0.323-0.172,0.57-0.172c0.266,0,0.48,0.074,0.645,0.221c0.165,0.146,0.248,0.35,0.248,0.617
					c0,0.234-0.093,0.506-0.275,0.82c-0.185,0.314-0.462,0.615-0.831,0.902c-0.372,0.289-0.836,0.527-1.397,0.717
					c-0.56,0.191-1.204,0.285-1.933,0.285c-1.664,0-2.96-0.475-3.884-1.424c-0.925-0.949-1.387-2.238-1.387-3.865
					c0-0.768,0.113-1.479,0.342-2.133c0.229-0.656,0.561-1.217,0.997-1.686s0.975-0.828,1.615-1.078
					c0.639-0.25,1.349-0.375,2.127-0.375c1.013,0,1.882,0.213,2.606,0.641c0.726,0.428,1.27,0.98,1.63,1.656
					c0.359,0.678,0.541,1.369,0.541,2.07c0,0.654-0.187,1.076-0.56,1.27S-99.709,251.964-100.388,251.964z M-105.459,250.491h4.702
					c-0.063-0.887-0.304-1.551-0.718-1.99c-0.415-0.441-0.96-0.66-1.638-0.66c-0.646,0-1.177,0.223-1.591,0.668
					C-105.118,248.956-105.369,249.616-105.459,250.491z"/>
				<path id="XMLID_571_" fill="#5D5D5D" d="M-88.572,253.206c0,0.715-0.174,1.328-0.522,1.838c-0.348,0.51-0.862,0.896-1.544,1.16
					c-0.68,0.262-1.508,0.393-2.483,0.393c-0.931,0-1.729-0.143-2.394-0.428c-0.664-0.283-1.155-0.641-1.472-1.066
					c-0.316-0.43-0.475-0.857-0.475-1.289c0-0.285,0.101-0.527,0.304-0.73c0.202-0.201,0.459-0.303,0.77-0.303
					c0.271,0,0.48,0.066,0.626,0.199c0.146,0.133,0.286,0.32,0.418,0.559c0.266,0.465,0.585,0.807,0.955,1.037
					c0.37,0.227,0.875,0.342,1.516,0.342c0.519,0,0.944-0.117,1.277-0.348c0.332-0.232,0.498-0.496,0.498-0.793
					c0-0.457-0.172-0.787-0.518-0.996s-0.914-0.41-1.705-0.6c-0.893-0.221-1.619-0.455-2.18-0.699
					c-0.561-0.242-1.009-0.564-1.344-0.963c-0.336-0.398-0.504-0.891-0.504-1.473c0-0.518,0.155-1.01,0.466-1.473
					c0.311-0.461,0.768-0.83,1.373-1.105c0.604-0.275,1.333-0.414,2.188-0.414c0.671,0,1.274,0.07,1.809,0.211
					c0.536,0.137,0.983,0.326,1.34,0.561c0.358,0.232,0.63,0.492,0.816,0.777s0.28,0.563,0.28,0.836c0,0.297-0.1,0.541-0.299,0.732
					c-0.199,0.188-0.482,0.285-0.851,0.285c-0.266,0-0.492-0.076-0.679-0.23c-0.187-0.15-0.4-0.379-0.641-0.682
					c-0.196-0.254-0.427-0.457-0.693-0.609c-0.266-0.152-0.627-0.227-1.083-0.227c-0.469,0-0.857,0.098-1.168,0.299
					c-0.311,0.199-0.466,0.447-0.466,0.744c0,0.273,0.114,0.496,0.342,0.67c0.229,0.176,0.535,0.32,0.922,0.434
					s0.917,0.252,1.596,0.416c0.804,0.197,1.46,0.432,1.971,0.703c0.509,0.271,0.896,0.594,1.159,0.965
					C-88.703,252.31-88.572,252.731-88.572,253.206z"/>
				<path id="XMLID_568_" fill="#5D5D5D" d="M-85.924,244.849c-0.36,0-0.669-0.111-0.926-0.332
					c-0.256-0.221-0.385-0.535-0.385-0.941c0-0.367,0.132-0.668,0.395-0.906s0.568-0.357,0.916-0.357
					c0.336,0,0.634,0.107,0.893,0.324c0.26,0.215,0.391,0.527,0.391,0.939c0,0.4-0.128,0.711-0.381,0.936
					S-85.575,244.849-85.924,244.849z M-84.641,247.526v7.494c0,0.52-0.124,0.912-0.371,1.178s-0.56,0.398-0.94,0.398
					c-0.38,0-0.688-0.135-0.926-0.408c-0.238-0.271-0.356-0.662-0.356-1.168v-7.418c0-0.512,0.118-0.898,0.356-1.158
					c0.237-0.26,0.546-0.391,0.926-0.391c0.381,0,0.693,0.131,0.94,0.391S-84.641,247.065-84.641,247.526z"/>
				<path id="XMLID_565_" fill="#5D5D5D" d="M-73.282,247.954v7.531c0,0.861-0.093,1.604-0.276,2.225
					c-0.183,0.619-0.478,1.133-0.883,1.537s-0.936,0.707-1.591,0.902c-0.655,0.197-1.471,0.295-2.446,0.295
					c-0.893,0-1.69-0.125-2.394-0.375c-0.702-0.252-1.243-0.574-1.624-0.969c-0.379-0.396-0.57-0.803-0.57-1.221
					c0-0.316,0.108-0.576,0.324-0.773c0.215-0.201,0.475-0.301,0.778-0.301c0.38,0,0.712,0.168,0.997,0.504
					c0.139,0.17,0.283,0.344,0.432,0.518c0.149,0.176,0.314,0.324,0.494,0.447c0.181,0.123,0.397,0.215,0.65,0.275
					c0.254,0.059,0.546,0.09,0.874,0.09c0.672,0,1.192-0.094,1.563-0.281c0.37-0.186,0.63-0.447,0.778-0.783
					c0.149-0.334,0.236-0.693,0.262-1.078c0.025-0.383,0.044-0.998,0.057-1.848c-0.399,0.559-0.859,0.982-1.383,1.273
					c-0.521,0.291-1.145,0.438-1.865,0.438c-0.868,0-1.626-0.223-2.275-0.666c-0.648-0.443-1.147-1.063-1.495-1.861
					c-0.349-0.799-0.522-1.719-0.522-2.764c0-0.777,0.105-1.482,0.317-2.107c0.213-0.629,0.516-1.156,0.907-1.588
					c0.393-0.43,0.846-0.754,1.358-0.973s1.076-0.328,1.69-0.328c0.734,0,1.371,0.143,1.909,0.422
					c0.538,0.283,1.039,0.725,1.501,1.326v-0.352c0-0.449,0.11-0.797,0.332-1.045c0.222-0.246,0.507-0.371,0.855-0.371
					c0.5,0,0.832,0.164,0.996,0.49C-73.365,246.87-73.282,247.341-73.282,247.954z M-80.795,251.241
					c0,1.051,0.229,1.846,0.688,2.383c0.459,0.539,1.054,0.809,1.781,0.809c0.431,0,0.837-0.117,1.22-0.348
					c0.384-0.23,0.695-0.58,0.937-1.045c0.24-0.465,0.361-1.029,0.361-1.695c0-1.057-0.232-1.881-0.698-2.469
					s-1.078-0.883-1.839-0.883c-0.741,0-1.334,0.281-1.78,0.846C-80.572,249.401-80.795,250.202-80.795,251.241z"/>
				<path id="XMLID_563_" fill="#5D5D5D" d="M-69.161,247.489v0.313c0.455-0.602,0.954-1.043,1.495-1.324
					c0.542-0.281,1.163-0.424,1.866-0.424c0.685,0,1.295,0.15,1.834,0.447c0.537,0.299,0.94,0.719,1.205,1.262
					c0.172,0.318,0.282,0.66,0.333,1.027s0.077,0.836,0.077,1.406v4.824c0,0.52-0.119,0.912-0.357,1.178
					c-0.237,0.266-0.546,0.398-0.926,0.398c-0.387,0-0.699-0.135-0.94-0.408c-0.241-0.271-0.36-0.662-0.36-1.168v-4.322
					c0-0.854-0.119-1.508-0.356-1.961c-0.238-0.451-0.711-0.68-1.421-0.68c-0.461,0-0.883,0.139-1.263,0.414
					s-0.658,0.654-0.836,1.135c-0.126,0.387-0.189,1.107-0.189,2.166v3.248c0,0.525-0.123,0.92-0.365,1.184
					c-0.244,0.262-0.559,0.393-0.945,0.393c-0.374,0-0.681-0.135-0.922-0.408c-0.24-0.271-0.36-0.662-0.36-1.168v-7.494
					c0-0.494,0.107-0.863,0.322-1.107c0.216-0.242,0.51-0.365,0.883-0.365c0.229,0,0.435,0.055,0.619,0.162
					c0.183,0.109,0.33,0.27,0.441,0.484C-69.217,246.915-69.161,247.179-69.161,247.489z"/>
				<path id="XMLID_560_" fill="#5D5D5D" d="M-53.387,251.964h-5.071c0.007,0.588,0.124,1.107,0.356,1.557
					c0.23,0.449,0.537,0.789,0.921,1.016c0.382,0.229,0.806,0.342,1.268,0.342c0.311,0,0.594-0.035,0.851-0.107
					c0.256-0.074,0.504-0.188,0.746-0.344c0.239-0.154,0.461-0.32,0.665-0.498c0.201-0.178,0.464-0.42,0.787-0.723
					c0.133-0.113,0.323-0.172,0.57-0.172c0.266,0,0.481,0.074,0.646,0.221c0.165,0.146,0.247,0.35,0.247,0.617
					c0,0.234-0.092,0.506-0.275,0.82c-0.185,0.314-0.461,0.615-0.832,0.902c-0.37,0.289-0.835,0.527-1.396,0.717
					c-0.561,0.191-1.205,0.285-1.933,0.285c-1.665,0-2.96-0.475-3.886-1.424c-0.923-0.949-1.386-2.238-1.386-3.865
					c0-0.768,0.114-1.479,0.342-2.133c0.228-0.656,0.561-1.217,0.998-1.686c0.437-0.469,0.975-0.828,1.614-1.078
					c0.639-0.25,1.349-0.375,2.128-0.375c1.013,0,1.881,0.213,2.605,0.641c0.726,0.428,1.269,0.98,1.63,1.656
					c0.36,0.678,0.542,1.369,0.542,2.07c0,0.654-0.187,1.076-0.561,1.27C-52.183,251.866-52.709,251.964-53.387,251.964z
					 M-58.458,250.491h4.701c-0.063-0.887-0.303-1.551-0.717-1.99c-0.415-0.441-0.961-0.66-1.639-0.66
					c-0.646,0-1.177,0.223-1.592,0.668C-58.119,248.956-58.369,249.616-58.458,250.491z"/>
				<path id="XMLID_557_" fill="#5D5D5D" d="M-42.817,255.116v-0.258c-0.348,0.398-0.691,0.725-1.03,0.973
					c-0.339,0.252-0.705,0.441-1.102,0.57c-0.395,0.133-0.827,0.195-1.296,0.195c-0.621,0-1.195-0.131-1.724-0.393
					c-0.529-0.264-0.986-0.639-1.373-1.127c-0.387-0.486-0.679-1.059-0.878-1.719c-0.2-0.658-0.3-1.371-0.3-2.137
					c0-1.621,0.396-2.885,1.188-3.791c0.791-0.904,1.833-1.357,3.125-1.357c0.747,0,1.377,0.129,1.89,0.385s1.014,0.652,1.5,1.182
					v-3.826c0-0.533,0.106-0.934,0.319-1.207c0.211-0.271,0.515-0.408,0.907-0.408c0.392,0,0.694,0.125,0.906,0.375
					c0.212,0.252,0.318,0.619,0.318,1.107v11.436c0,0.494-0.113,0.863-0.342,1.111c-0.228,0.246-0.521,0.369-0.883,0.369
					c-0.354,0-0.647-0.127-0.879-0.383C-42.701,255.956-42.817,255.591-42.817,255.116z M-47.917,251.308
					c0,0.703,0.108,1.301,0.327,1.795s0.518,0.865,0.898,1.115c0.38,0.25,0.794,0.377,1.243,0.377c0.457,0,0.873-0.119,1.249-0.357
					c0.377-0.236,0.679-0.602,0.902-1.092c0.226-0.49,0.338-1.105,0.338-1.838c0-0.691-0.112-1.285-0.338-1.783
					c-0.224-0.496-0.528-0.875-0.911-1.139c-0.384-0.262-0.803-0.393-1.259-0.393c-0.475,0-0.899,0.135-1.272,0.402
					c-0.373,0.27-0.663,0.654-0.869,1.158S-47.917,250.642-47.917,251.308z"/>
				<path id="XMLID_554_" fill="#5D5D5D" d="M-32.219,243.681v3.959c0.487-0.506,0.984-0.895,1.491-1.162
					c0.506-0.27,1.134-0.404,1.881-0.404c0.861,0,1.615,0.205,2.266,0.611c0.647,0.41,1.151,1.002,1.51,1.777
					c0.357,0.775,0.537,1.695,0.537,2.76c0,0.785-0.101,1.504-0.3,2.16s-0.489,1.225-0.869,1.705s-0.841,0.854-1.382,1.117
					c-0.542,0.262-1.139,0.393-1.79,0.393c-0.399,0-0.775-0.047-1.126-0.143c-0.352-0.094-0.651-0.219-0.897-0.375
					c-0.246-0.154-0.457-0.314-0.632-0.479c-0.174-0.164-0.404-0.412-0.688-0.742v0.258c0,0.486-0.117,0.855-0.352,1.107
					c-0.233,0.25-0.531,0.373-0.893,0.373c-0.367,0-0.66-0.123-0.879-0.373c-0.219-0.252-0.327-0.621-0.327-1.107v-11.322
					c0-0.525,0.105-0.924,0.317-1.191c0.212-0.27,0.509-0.404,0.889-0.404c0.399,0,0.706,0.129,0.921,0.385
					C-32.327,242.841-32.219,243.204-32.219,243.681z M-32.096,251.384c0,1.031,0.236,1.824,0.708,2.377
					c0.472,0.555,1.091,0.834,1.856,0.834c0.652,0,1.215-0.283,1.686-0.852c0.472-0.566,0.708-1.379,0.708-2.436
					c0-0.684-0.098-1.273-0.294-1.768c-0.197-0.494-0.475-0.875-0.836-1.145c-0.361-0.268-0.782-0.402-1.264-0.402
					c-0.493,0-0.935,0.135-1.32,0.402c-0.386,0.27-0.689,0.658-0.912,1.168C-31.984,250.073-32.096,250.681-32.096,251.384z"/>
				<path id="XMLID_552_" fill="#5D5D5D" d="M-21.173,256.921l0.237-0.58l-3.191-8.035c-0.196-0.461-0.295-0.799-0.295-1.008
					c0-0.221,0.058-0.426,0.171-0.615c0.114-0.191,0.271-0.344,0.47-0.457c0.2-0.115,0.407-0.172,0.623-0.172
					c0.373,0,0.654,0.119,0.846,0.357c0.19,0.236,0.357,0.576,0.503,1.02l2.194,6.383l2.08-5.936
					c0.164-0.48,0.313-0.857,0.446-1.131c0.133-0.271,0.273-0.455,0.422-0.549c0.148-0.096,0.359-0.145,0.633-0.145
					c0.197,0,0.385,0.053,0.564,0.158c0.181,0.104,0.32,0.244,0.418,0.422s0.148,0.363,0.148,0.561
					c-0.027,0.119-0.066,0.291-0.125,0.514c-0.057,0.221-0.126,0.447-0.208,0.674l-3.382,8.852
					c-0.292,0.779-0.576,1.389-0.855,1.832c-0.278,0.443-0.646,0.785-1.106,1.021c-0.459,0.238-1.078,0.357-1.856,0.357
					c-0.76,0-1.33-0.082-1.709-0.246c-0.381-0.166-0.57-0.467-0.57-0.904c0-0.297,0.09-0.527,0.271-0.688
					c0.18-0.162,0.447-0.244,0.801-0.244c0.14,0,0.276,0.02,0.409,0.059c0.165,0.037,0.307,0.057,0.427,0.057
					c0.298,0,0.532-0.043,0.704-0.133c0.17-0.088,0.323-0.242,0.46-0.461C-21.508,257.667-21.351,257.345-21.173,256.921z"/>
			</g>
			<g id="XMLID_529_">
				<path id="XMLID_550_" fill="#5D5D5D" d="M16.39,246.278h0.619v-0.777c0-0.814,0.1-1.457,0.307-1.938
					c0.203-0.479,0.555-0.826,1.047-1.045c0.49-0.217,1.162-0.326,2.016-0.326c1.52,0,2.273,0.367,2.273,1.113
					c0,0.238-0.08,0.445-0.24,0.615c-0.154,0.17-0.344,0.256-0.559,0.256c-0.1,0-0.277-0.018-0.527-0.059
					c-0.236-0.033-0.451-0.057-0.623-0.057c-0.467,0-0.766,0.141-0.904,0.416c-0.127,0.275-0.195,0.668-0.195,1.184v0.617h0.633
					c0.99,0,1.48,0.297,1.48,0.896c0,0.418-0.127,0.689-0.393,0.805c-0.262,0.113-0.623,0.17-1.088,0.17h-0.633v6.871
					c0,0.512-0.121,0.9-0.369,1.168c-0.242,0.273-0.555,0.406-0.943,0.406c-0.367,0-0.67-0.133-0.918-0.406
					c-0.244-0.268-0.363-0.656-0.363-1.168v-6.871h-0.715c-0.389,0-0.682-0.084-0.893-0.262c-0.209-0.17-0.314-0.398-0.314-0.678
					C15.087,246.587,15.521,246.278,16.39,246.278"/>
				<path id="XMLID_549_" fill="#5D5D5D" d="M24.88,252.853v2.168c0,0.523-0.133,0.92-0.375,1.18
					c-0.246,0.266-0.559,0.395-0.938,0.395c-0.381,0-0.688-0.131-0.926-0.4c-0.236-0.264-0.361-0.656-0.361-1.174v-7.223
					c0-1.166,0.42-1.748,1.262-1.748c0.434,0,0.742,0.135,0.934,0.408c0.189,0.273,0.295,0.674,0.316,1.207
					c0.309-0.533,0.625-0.934,0.949-1.207c0.332-0.273,0.762-0.408,1.309-0.408c0.549,0,1.072,0.135,1.586,0.408
					c0.516,0.273,0.771,0.637,0.771,1.084c0,0.314-0.111,0.58-0.326,0.781c-0.221,0.209-0.455,0.313-0.707,0.313
					c-0.1,0-0.33-0.063-0.691-0.18c-0.365-0.113-0.689-0.174-0.963-0.174c-0.381,0-0.693,0.104-0.932,0.299
					c-0.242,0.205-0.432,0.496-0.564,0.887c-0.129,0.395-0.219,0.865-0.273,1.404C24.901,251.413,24.88,252.075,24.88,252.853"/>
				<path id="XMLID_546_" fill="#5D5D5D" d="M36.8,251.96h-5.074c0.01,0.588,0.125,1.111,0.355,1.559
					c0.234,0.447,0.539,0.787,0.924,1.018c0.385,0.227,0.805,0.34,1.27,0.34c0.311,0,0.592-0.033,0.85-0.111
					c0.254-0.07,0.504-0.186,0.744-0.342c0.242-0.152,0.461-0.318,0.664-0.5c0.203-0.174,0.467-0.416,0.791-0.719
					c0.135-0.113,0.324-0.174,0.568-0.174c0.268,0,0.48,0.074,0.648,0.223c0.166,0.146,0.244,0.35,0.244,0.617
					c0,0.234-0.09,0.508-0.268,0.818c-0.188,0.318-0.463,0.617-0.836,0.906c-0.375,0.285-0.84,0.527-1.398,0.715
					c-0.559,0.189-1.205,0.285-1.932,0.285c-1.67,0-2.963-0.473-3.887-1.422c-0.924-0.951-1.391-2.242-1.391-3.867
					c0-0.768,0.117-1.479,0.348-2.135c0.225-0.658,0.557-1.217,0.998-1.688c0.436-0.471,0.971-0.828,1.613-1.078
					c0.637-0.25,1.346-0.375,2.127-0.375c1.012,0,1.881,0.215,2.607,0.646c0.723,0.422,1.273,0.977,1.629,1.654
					c0.361,0.68,0.541,1.367,0.541,2.074c0,0.648-0.188,1.07-0.561,1.266C38.003,251.864,37.478,251.96,36.8,251.96 M31.726,250.485
					h4.701c-0.063-0.885-0.297-1.549-0.713-1.986c-0.418-0.441-0.959-0.66-1.641-0.66c-0.646,0-1.178,0.221-1.592,0.67
					C32.067,248.954,31.813,249.612,31.726,250.485"/>
				<path id="XMLID_543_" fill="#5D5D5D" d="M47.587,251.96h-5.072c0.006,0.588,0.125,1.111,0.354,1.559
					c0.232,0.447,0.539,0.787,0.922,1.018c0.383,0.227,0.805,0.34,1.271,0.34c0.307,0,0.592-0.033,0.844-0.111
					c0.26-0.07,0.506-0.186,0.75-0.342c0.242-0.152,0.461-0.318,0.664-0.5c0.199-0.174,0.465-0.416,0.789-0.719
					c0.135-0.113,0.326-0.174,0.568-0.174c0.268,0,0.482,0.074,0.65,0.223c0.164,0.146,0.24,0.35,0.24,0.617
					c0,0.234-0.088,0.508-0.273,0.818c-0.178,0.318-0.455,0.617-0.83,0.906c-0.371,0.285-0.84,0.527-1.396,0.715
					c-0.557,0.189-1.207,0.285-1.934,0.285c-1.668,0-2.959-0.473-3.887-1.422c-0.924-0.951-1.389-2.242-1.389-3.867
					c0-0.768,0.115-1.479,0.348-2.135c0.227-0.658,0.559-1.217,0.996-1.688c0.436-0.471,0.973-0.828,1.613-1.078
					c0.639-0.25,1.352-0.375,2.129-0.375c1.01,0,1.879,0.215,2.613,0.646c0.721,0.422,1.266,0.977,1.621,1.654
					c0.359,0.68,0.545,1.367,0.545,2.074c0,0.648-0.191,1.07-0.561,1.266C48.788,251.864,48.263,251.96,47.587,251.96
					 M42.515,250.485h4.701c-0.064-0.885-0.305-1.549-0.715-1.986c-0.422-0.441-0.963-0.66-1.643-0.66
					c-0.646,0-1.176,0.221-1.594,0.67C42.853,248.954,42.599,249.612,42.515,250.485"/>
				<path id="XMLID_540_" fill="#5D5D5D" d="M53.267,247.509v0.311c0.486-0.602,0.994-1.043,1.525-1.324
					c0.518-0.285,1.117-0.428,1.781-0.428c0.795,0,1.535,0.209,2.207,0.617c0.672,0.414,1.199,1.016,1.59,1.807
					c0.389,0.795,0.586,1.73,0.586,2.814c0,0.795-0.113,1.531-0.336,2.201c-0.225,0.668-0.537,1.227-0.93,1.68
					c-0.393,0.449-0.855,0.801-1.389,1.045c-0.543,0.242-1.111,0.363-1.729,0.363c-0.738,0-1.363-0.148-1.865-0.447
					c-0.502-0.291-0.982-0.732-1.441-1.305v3.893c0,1.135-0.416,1.709-1.244,1.709c-0.49,0-0.809-0.146-0.971-0.439
					c-0.152-0.299-0.234-0.723-0.234-1.291v-11.193c0-0.494,0.107-0.859,0.32-1.107c0.215-0.238,0.512-0.363,0.885-0.363
					c0.369,0,0.666,0.125,0.896,0.373C53.153,246.677,53.267,247.034,53.267,247.509 M58.351,251.276
					c0-0.686-0.105-1.273-0.314-1.764c-0.209-0.492-0.498-0.867-0.865-1.127c-0.367-0.264-0.783-0.396-1.232-0.396
					c-0.715,0-1.318,0.283-1.809,0.844c-0.492,0.566-0.74,1.395-0.74,2.492c0,1.027,0.244,1.834,0.736,2.406
					c0.486,0.574,1.086,0.859,1.813,0.859c0.428,0,0.83-0.127,1.197-0.373c0.371-0.252,0.664-0.627,0.883-1.127
					C58.239,252.589,58.351,251.983,58.351,251.276"/>
				<path id="XMLID_537_" fill="#5D5D5D" d="M63.567,244.843c-0.363,0-0.67-0.115-0.924-0.336c-0.26-0.223-0.387-0.531-0.387-0.936
					c0-0.369,0.131-0.67,0.396-0.91c0.262-0.234,0.566-0.355,0.914-0.355c0.34,0,0.635,0.105,0.893,0.318
					c0.26,0.219,0.391,0.535,0.391,0.947c0,0.398-0.127,0.711-0.377,0.936C64.22,244.728,63.919,244.843,63.567,244.843
					 M64.851,247.521v7.502c0,0.516-0.123,0.908-0.369,1.172c-0.25,0.27-0.561,0.4-0.941,0.4s-0.686-0.133-0.928-0.406
					c-0.234-0.275-0.355-0.664-0.355-1.166v-7.428c0-0.51,0.121-0.895,0.355-1.154c0.242-0.264,0.547-0.391,0.928-0.391
					s0.691,0.127,0.941,0.391C64.728,246.7,64.851,247.063,64.851,247.521"/>
				<path id="XMLID_536_" fill="#5D5D5D" d="M73.21,255.411l-2.283-3.766l-1.408,1.328v2.066c0,0.498-0.133,0.881-0.396,1.148
					c-0.258,0.273-0.566,0.406-0.906,0.406c-0.398,0-0.715-0.131-0.941-0.4c-0.227-0.264-0.344-0.656-0.344-1.174v-11.063
					c0-0.574,0.115-1.012,0.332-1.314c0.223-0.305,0.545-0.451,0.953-0.451c0.398,0,0.713,0.137,0.949,0.41
					c0.234,0.271,0.354,0.674,0.354,1.203v6.293l2.916-3.063c0.361-0.377,0.633-0.641,0.826-0.779
					c0.189-0.139,0.42-0.207,0.689-0.207c0.326,0,0.594,0.104,0.816,0.309c0.211,0.205,0.32,0.465,0.32,0.773
					c0,0.379-0.354,0.889-1.055,1.521l-1.377,1.262l2.658,4.184c0.193,0.313,0.34,0.543,0.424,0.705
					c0.084,0.16,0.131,0.32,0.131,0.463c0,0.412-0.115,0.734-0.342,0.975c-0.225,0.236-0.523,0.354-0.885,0.354
					c-0.316,0-0.564-0.08-0.734-0.256C73.737,256.167,73.501,255.856,73.21,255.411"/>
				<path id="XMLID_535_" fill="#5D5D5D" d="M78.847,256.595c-0.393,0-0.729-0.125-1.014-0.381c-0.285-0.248-0.43-0.605-0.43-1.064
					c0-0.385,0.139-0.719,0.41-0.994c0.275-0.279,0.607-0.42,1.008-0.42c0.398,0,0.736,0.141,1.023,0.412
					c0.279,0.275,0.422,0.613,0.422,1.002c0,0.453-0.143,0.809-0.422,1.061C79.558,256.47,79.226,256.595,78.847,256.595"/>
				<path id="XMLID_534_" fill="#5D5D5D" d="M91.745,253.386c0,0.32-0.098,0.668-0.291,1.033c-0.191,0.371-0.488,0.719-0.887,1.051
					c-0.395,0.332-0.891,0.602-1.494,0.803c-0.602,0.203-1.281,0.307-2.031,0.307c-1.605,0-2.857-0.469-3.758-1.4
					c-0.895-0.936-1.346-2.189-1.346-3.76c0-1.068,0.205-2.006,0.619-2.824c0.408-0.814,1.004-1.447,1.781-1.895
					c0.779-0.447,1.717-0.67,2.795-0.67c0.674,0,1.287,0.098,1.852,0.295c0.561,0.195,1.033,0.451,1.426,0.76
					c0.387,0.314,0.686,0.643,0.889,0.992c0.207,0.352,0.309,0.68,0.309,0.986c0,0.309-0.113,0.572-0.344,0.787
					c-0.234,0.215-0.516,0.324-0.838,0.324c-0.219,0-0.398-0.057-0.541-0.166c-0.145-0.111-0.305-0.289-0.479-0.541
					c-0.318-0.479-0.646-0.842-0.996-1.08c-0.344-0.242-0.781-0.361-1.314-0.361c-0.762,0-1.383,0.297-1.854,0.896
					c-0.467,0.596-0.703,1.42-0.703,2.455c0,0.488,0.063,0.939,0.184,1.348c0.117,0.406,0.291,0.756,0.52,1.043
					c0.23,0.287,0.504,0.506,0.826,0.654c0.324,0.154,0.682,0.227,1.064,0.227c0.521,0,0.967-0.121,1.336-0.361
					c0.377-0.24,0.703-0.607,0.986-1.102c0.158-0.291,0.328-0.518,0.51-0.684c0.182-0.164,0.408-0.25,0.676-0.25
					c0.316,0,0.58,0.123,0.785,0.363C91.638,252.856,91.745,253.114,91.745,253.386"/>
				<path id="XMLID_531_" fill="#5D5D5D" d="M102.935,251.325c0,0.77-0.121,1.484-0.355,2.139c-0.246,0.652-0.592,1.213-1.049,1.678
					c-0.455,0.469-1.002,0.828-1.633,1.08c-0.639,0.248-1.35,0.375-2.139,0.375c-0.785,0-1.492-0.127-2.121-0.383
					c-0.623-0.248-1.17-0.613-1.625-1.082c-0.461-0.477-0.809-1.033-1.053-1.676c-0.229-0.645-0.35-1.355-0.35-2.131
					c0-0.787,0.123-1.506,0.357-2.158c0.242-0.654,0.59-1.213,1.039-1.674c0.451-0.461,0.994-0.816,1.631-1.07
					c0.645-0.248,1.35-0.373,2.121-0.373c0.785,0,1.498,0.125,2.139,0.381c0.639,0.252,1.184,0.615,1.645,1.08
					c0.457,0.475,0.803,1.029,1.039,1.672C102.815,249.833,102.935,250.542,102.935,251.325 M100.331,251.325
					c0-1.059-0.234-1.881-0.697-2.469c-0.463-0.596-1.09-0.889-1.875-0.889c-0.508,0-0.955,0.133-1.342,0.395
					s-0.682,0.648-0.891,1.164c-0.209,0.514-0.314,1.113-0.314,1.799c0,0.678,0.102,1.268,0.309,1.773
					c0.209,0.51,0.502,0.896,0.887,1.166c0.385,0.266,0.834,0.404,1.352,0.404c0.785,0,1.412-0.297,1.875-0.893
					C100.097,253.187,100.331,252.366,100.331,251.325"/>
				<path id="XMLID_530_" fill="#5D5D5D" d="M112.827,251.515v3.447c0,0.547-0.121,0.951-0.369,1.227
					c-0.25,0.273-0.572,0.408-0.979,0.408c-0.393,0-0.713-0.135-0.951-0.408c-0.246-0.275-0.371-0.68-0.371-1.227v-4.131
					c0-0.654-0.021-1.162-0.064-1.525c-0.045-0.354-0.168-0.654-0.361-0.883c-0.197-0.234-0.51-0.352-0.932-0.352
					c-0.85,0-1.406,0.291-1.676,0.881c-0.268,0.576-0.406,1.414-0.406,2.508v3.502c0,0.537-0.123,0.945-0.361,1.223
					c-0.25,0.273-0.568,0.412-0.965,0.412s-0.717-0.139-0.967-0.412c-0.252-0.277-0.377-0.686-0.377-1.223v-7.42
					c0-0.488,0.111-0.859,0.336-1.111c0.229-0.256,0.525-0.381,0.889-0.381c0.357,0,0.652,0.123,0.893,0.355
					c0.236,0.238,0.354,0.566,0.354,0.984v0.244c0.453-0.535,0.936-0.932,1.445-1.18c0.516-0.26,1.082-0.387,1.713-0.387
					c0.65,0,1.211,0.131,1.678,0.391c0.469,0.26,0.854,0.654,1.16,1.176c0.439-0.527,0.908-0.922,1.41-1.18
					c0.5-0.258,1.053-0.387,1.662-0.387c0.705,0,1.32,0.143,1.834,0.42c0.51,0.277,0.893,0.68,1.146,1.195
					c0.221,0.473,0.33,1.209,0.33,2.217v5.063c0,0.547-0.121,0.951-0.367,1.227c-0.246,0.273-0.574,0.408-0.979,0.408
					c-0.395,0-0.715-0.139-0.965-0.412c-0.25-0.277-0.377-0.686-0.377-1.223v-4.361c0-0.559-0.023-1.004-0.068-1.338
					c-0.047-0.338-0.178-0.621-0.383-0.848c-0.213-0.227-0.531-0.344-0.953-0.344c-0.342,0-0.666,0.107-0.975,0.309
					c-0.307,0.197-0.547,0.477-0.721,0.813C112.925,249.63,112.827,250.405,112.827,251.515"/>
			</g>
			<g id="XMLID_515_">
				<path id="XMLID_528_" fill="#5D5D5D" d="M-7.878,250.696c-0.002-0.004-0.002-0.01-0.002-0.018
					C-7.88,250.687-7.88,250.692-7.878,250.696z"/>
				<path id="XMLID_527_" fill="#5D5D5D" d="M-7.747,251.526c0.002,0,0.002,0,0.002,0c-0.049-0.236-0.088-0.471-0.117-0.703
					C-7.833,251.058-7.794,251.292-7.747,251.526z"/>
				<path id="XMLID_526_" fill="#5D5D5D" d="M-6.889,253.933c-0.006-0.01-0.011-0.021-0.017-0.033
					C-6.899,253.911-6.895,253.923-6.889,253.933z"/>
				<path id="XMLID_525_" fill="#5D5D5D" d="M-6.971,253.772c-0.022-0.045-0.044-0.09-0.065-0.135
					C-7.015,253.685-6.993,253.728-6.971,253.772z"/>
				<path id="XMLID_524_" fill="#5D5D5D" d="M-7.506,252.452c0.127,0.4,0.28,0.789,0.457,1.158c-0.181-0.377-0.33-0.766-0.454-1.158
					C-7.503,252.452-7.505,252.452-7.506,252.452z"/>
				<path id="XMLID_523_" fill="#5D5D5D" d="M2.159,240.761c0.502,0,0.871,0.039,1.295,0.111l0.121-0.764
					c0,0-1.172-0.359-2.711-0.234l-0.121-0.414c0.479-0.102,0.838-0.527,0.838-1.035c0-0.582-0.475-1.053-1.057-1.053
					c-0.584,0-1.057,0.471-1.057,1.053c0,0.508,0.359,0.934,0.836,1.035l0.135,0.463c-1.635,0.225-2.936,0.861-2.936,0.861
					l0.23,0.705c0.988-0.328,1.846-0.529,2.624-0.613C1.119,240.796,1.692,240.761,2.159,240.761z"/>
				<path id="XMLID_522_" fill="#5D5D5D" d="M-6.908,244.618l0.006-0.008c0.038-0.049,0.075-0.096,0.113-0.143l-0.313-0.225
					l-0.487-0.357c-0.027,0.039-0.795,0.744-1.401,2.049c-0.025-0.041-0.056-0.082-0.09-0.119c-0.182-0.199-0.436-0.301-0.758-0.295
					c-0.004,0-0.01,0-0.016,0c-0.199,0-0.336-0.066-0.426-0.146c0.089-0.113,0.143-0.256,0.143-0.414c0-0.367-0.3-0.668-0.67-0.668
					c-0.368,0-0.668,0.301-0.668,0.668c0,0.371,0.3,0.67,0.668,0.67c0.059,0,0.113-0.01,0.168-0.021
					c0.164,0.184,0.425,0.342,0.807,0.334c0.197-0.002,0.342,0.049,0.438,0.156c0.111,0.121,0.148,0.295,0.16,0.428
					c-0.001,0.002-0.001,0.004-0.003,0.004c-0.436,1.189-0.312,2.67-0.312,2.67l1.058,0.043c0.021-0.539,0.099-1.482,0.372-2.23
					C-7.595,245.563-6.935,244.657-6.908,244.618z"/>
				<path id="XMLID_521_" fill="#5D5D5D" d="M11.358,241.644c-0.367,0-0.668,0.299-0.668,0.67c0,0.057,0.008,0.111,0.023,0.164
					c-0.184,0.166-0.344,0.428-0.338,0.811c0.004,0.197-0.047,0.34-0.154,0.438c-0.084,0.074-0.191,0.115-0.295,0.141
					c-0.787-1.104-1.756-1.775-1.756-1.775l-0.76,0.813c0.574,0.521,1.16,1.176,1.729,1.99c0.395,0.564,0.799,1.291,1.137,2.016
					l1.023-0.486c0,0-0.467-1.156-1.125-2.191c0.113-0.041,0.229-0.104,0.33-0.193c0.201-0.18,0.299-0.436,0.293-0.758
					c-0.002-0.207,0.066-0.348,0.148-0.441c0.115,0.088,0.258,0.143,0.412,0.143c0.371,0,0.67-0.299,0.67-0.668
					C12.028,241.942,11.729,241.644,11.358,241.644z"/>
				<path id="XMLID_520_" fill="#5D5D5D" d="M8.702,250.847c-1.41,0.686-3.729,1.594-6.781,2.02
					c-1.199,0.166-2.359,0.227-3.429,0.227c-1.391,0-2.62-0.104-3.563-0.223c-1.076-0.135-1.917-0.301-2.433-0.418
					c0.124,0.393,0.273,0.781,0.454,1.158c0.003,0.01,0.008,0.021,0.013,0.027c0.021,0.045,0.043,0.09,0.065,0.135
					c0.021,0.043,0.043,0.086,0.065,0.127c0.006,0.012,0.011,0.023,0.017,0.033c0.303,0.57,0.667,1.094,1.081,1.549
					c1.439,1.574,2.906,1.824,2.92,1.826l0.023,0.002l0.021,0.008c0.014,0.006,1.314,0.426,3.291,0.426
					c1.945,0,3.855-0.393,5.674-1.168c1.348-0.689,2.623-1.736,3.254-2.67c0.488-0.723,0.842-1.492,1.051-2.293
					c0.111-0.426,0.199-1.107,0.146-1.826C10.177,250.054,9.55,250.433,8.702,250.847z"/>
				<path id="XMLID_516_" fill="#5D5D5D" d="M-6.456,244.952c-0.041,0.061-0.652,0.926-1.135,2.254
					c-0.361,0.994-0.346,2.443-0.346,2.459v0.004c0,0.34,0.02,0.676,0.057,1.01c0,0.008,0,0.014,0.002,0.018
					c0.004,0.043,0.012,0.084,0.016,0.127c0.029,0.232,0.068,0.467,0.118,0.703c0.7,0.178,4.878,1.152,9.548,0.502
					c2.928-0.408,5.15-1.273,6.5-1.928c1.121-0.543,1.842-1.035,2.119-1.238c-0.277-1.027-1.041-2.641-1.742-3.646
					c-2.006-2.865-4.168-3.6-5.277-3.783c-0.424-0.068-0.764-0.109-1.244-0.109c-0.447,0-1.002,0.037-1.742,0.115
					c-0.744,0.076-1.572,0.271-2.533,0.596c-1.348,0.451-2.566,1.158-3.526,2.047l-0.032,0.031
					C-5.817,244.243-6.114,244.519-6.456,244.952z M5.813,244.286c0.961,0,1.744,0.781,1.744,1.742c0,0.963-0.783,1.744-1.744,1.744
					s-1.742-0.781-1.742-1.744C4.071,245.067,4.853,244.286,5.813,244.286z M-2.428,244.216c1.557,0,2.817,1.262,2.817,2.818
					c0,1.555-1.261,2.814-2.817,2.814c-1.555,0-2.815-1.26-2.815-2.814C-5.243,245.478-3.982,244.216-2.428,244.216z"/>
			</g>
		</g>
	</g>
</g>
</svg>
